<?xml version="1.0" encoding="iso-8859-1"?>
<svg xmlns:xlink="http://www.w3.org/1999/xlink" x="0px" y="0px" viewBox="0 0 512.019 512.019" style="enable-background:new 0 0 512.019 512.019;" xml:space="preserve" version="1.1" id="Layer_1"  xmlns="http://www.w3.org/2000/svg">
    <path d="m280 240c.050781 44.164062 35.839844 79.953125 80 80v-16c-35.34375 0-64-28.652344-64-64 0-35.34375 28.65625-64 64-64v-16c-44.160156.050781-79.949219 35.839844-80 80zm0 0" />
    <path d="m475.273438 104.695312-232-104c-2.007813-.894531-4.296876-.929687-6.328126-.085937l-232 96c-2.992187 1.238281-4.94140575 4.15625-4.945312 7.390625v40c0 4.417969 3.582031 8 8 8h8v32c0 4.417969 3.582031 8 8 8h8v24c0 4.417969 3.582031 8 8 8h8v144h-8c-4.417969 0-8 3.582031-8 8v24h-16c-4.417969 0-8 3.582031-8 8v32c0 13.257812 10.746094 24 24 24h300.449219c5.644531 9.894531 16.160156 16.003906 27.550781 16.003906 11.394531 0 21.910156-6.109375 27.554688-16.003906h60.445312c13.257812 0 24-10.742188 24-24v-32c0-4.417969-3.578125-8-8-8h-16v-24c0-4.417969-3.578125-8-8-8h-8v-42.335938c39.589844-33.046874 51.3125-88.949218 28.335938-135.117187 2.253906-1.417969 3.632812-3.882813 3.664062-6.546875v-32h8c4.421875 0 8-3.582031 8-8v-32c.003906-3.152344-1.847656-6.011719-4.726562-7.304688zm-123.273438 246.898438c2.65625.191406 5.296875.40625 8 .40625 2.707031 0 5.347656-.214844 8-.40625v8.40625h-16zm-16 8.40625c-4.417969 0-8 3.582031-8 8v32h-40v-24c0-4.417969-3.578125-8-8-8h-8v-58.941406c16.023438 20.4375 38.644531 34.679687 64 40.285156zm-208 40v-24c0-4.417969-3.578125-8-8-8h-8v-144h8c4.421875 0 8-3.582031 8-8v-24h64v24c0 4.417969 3.582031 8 8 8h8v144h-8c-4.417969 0-8 3.582031-8 8v24zm96-176h25.28125c-3.011719 19.367188-.6875 39.1875 6.71875 57.328125v86.671875h-32zm-16 160h64v16h-64zm44.722656-176h-44.722656v-16h50.960938c-2.488282 5.164062-4.574219 10.515625-6.238282 16zm15.496094-32h-236.21875v-24h258.945312c-8.714843 6.839844-16.371093 14.929688-22.726562 24zm-156.21875 16v16h-64v-16zm-48 32h32v144h-32zm-16 160h64v16h-64zm-16 64c-4.417969 0-8-3.582031-8-8v-24h304v32zm344 0c0 8.835938-7.160156 16-16 16-8.835938 0-16-7.164062-16-16v-72h32zm80-8c0 4.417969-3.578125 8-8 8h-56v-32h64zm-64-40v-16h40v16zm24-32h-24c0-4.417969-3.578125-8-8-8v-10.65625c11.25-2.480469 22.046875-6.695312 32-12.496094zm-56-32c-53.019531 0-96-42.980469-96-96s42.980469-96 96-96 96 42.980469 96 96c-.054688 52.996094-43.003906 95.945312-96 96zm69.058594-184h18.941406v18.945312c-5.539062-7.042968-11.898438-13.402343-18.941406-18.945312zm34.941406-16h-62.671875c-26.519531-10.664062-56.132813-10.664062-82.65625 0h-302.671875v-26.65625l223.875-92.628906 224.125 100.460937zm0 0" />
    <path d="m200 80c0 22.09375 17.910156 40 40 40 22.09375 0 40-17.90625 40-40 0-22.089844-17.90625-40-40-40-22.078125.027344-39.972656 17.921875-40 40zm40-24c13.257812 0 24 10.746094 24 24 0 13.257812-10.742188 24-24 24-13.253906 0-24-10.742188-24-24 0-13.253906 10.746094-24 24-24zm0 0" />
</svg>