<?xml version="1.0" encoding="UTF-8" standalone="no"?>
<svg
   xmlns:dc="http://purl.org/dc/elements/1.1/"
   xmlns:cc="http://creativecommons.org/ns#"
   xmlns:rdf="http://www.w3.org/1999/02/22-rdf-syntax-ns#"
   xmlns:svg="http://www.w3.org/2000/svg"
   xmlns="http://www.w3.org/2000/svg"
   id="svg18"
   version="1.1"
   width="40"
   viewBox="0 0 42 48"
   height="40">
  <metadata
     id="metadata24">
    <rdf:RDF>
      <cc:Work
         rdf:about="">
        <dc:format>image/svg+xml</dc:format>
        <dc:type
           rdf:resource="http://purl.org/dc/dcmitype/StillImage" />
      </cc:Work>
    </rdf:RDF>
  </metadata>
  <defs
     id="defs22" />
  <g
     transform="translate(-23.9999,-25.0001)"
     style="fill:none;fill-rule:evenodd"
     id="g16">
    <g
       style="stroke:#969696;stroke-width:2"
       id="g14"
       transform="translate(25,26)">
      <path
         id="path2"
         d="m 37.9999,4.0001 h 2 v 21 h -14.004 l -1.996,2 h -8 l -1.995,-2 H -1e-4 v -21 h 2" />
      <path
         id="path4"
         d="m 3.9999,21.0001 h 10 c 1.938,0 3.25,0.542 4,2 h 2 v -17 c 0,-3.25 -1.954,-6 -6,-6 h -10 z" />
      <path
         id="path6"
         d="m 35.9999,21.0001 h -10 c -1.938,0 -3.25,0.542 -4,2 h -2 v -17 c 0,-3.25 1.954,-6 6,-6 h 10 z" />
      <path
         id="path8"
         d="m 34.9999,46.0001 h -4 c -1.104,0 -2,-0.896 -2,-2 v -7 c 0,-1.104 0.896,-2 2,-2 h 4 c 1.104,0 2,0.896 2,2 v 7 c 0,1.104 -0.896,2 -2,2 z" />
      <path
         id="path10"
         d="m 32.9999,35.0001 v -1 c 0,-1.657 -1.343,-3 -3,-3 h -23 c -1.657,0 -3,-1.343 -3,-3 v -3" />
      <path
         id="path12"
         d="m 32.9999,37.0001 v 3" />
    </g>
  </g>
</svg>
