<?xml version="1.0" encoding="UTF-8" standalone="no"?>
<svg
   xmlns:dc="http://purl.org/dc/elements/1.1/"
   xmlns:cc="http://creativecommons.org/ns#"
   xmlns:rdf="http://www.w3.org/1999/02/22-rdf-syntax-ns#"
   xmlns:svg="http://www.w3.org/2000/svg"
   xmlns="http://www.w3.org/2000/svg"
   id="svg24"
   version="1.1"
   viewBox="0 0 39.080124 47.0005"
>
  <metadata
     id="metadata30">
    <rdf:RDF>
      <cc:Work
         rdf:about="">
        <dc:format>image/svg+xml</dc:format>
        <dc:type
           rdf:resource="http://purl.org/dc/dcmitype/StillImage" />
      </cc:Work>
    </rdf:RDF>
  </metadata>
  <defs
     id="defs28" />
  <g
     transform="translate(-26.0005,-21)"
     style="fill:none;fill-rule:evenodd"
     id="g22">
    <g
       style="stroke:#969696;stroke-width:2"
       id="g20"
       transform="translate(27,22)">
      <path
         id="path2"
         d="m 9.0005,23.0005 c 2.289,0 4,-1.919 4,-4.286 v -1.429 c 0,-2.367 -1.711,-4.285 -4,-4.285 -2.29,0 -4,1.918 -4,4.285 v 1.429 c 0,2.367 1.71,4.286 4,4.286 z" />
      <path
         id="path4"
         d="m 33,0 h -8 l -4,13 h 4 L 24,23 36,8 h -6 z" />
      <path
         id="path6"
         d="m 17.0005,28.0005 c -1.333,-0.709 -3.917,-1.917 -6,-2 h -5 c -3.584,0 -6,1.512 -6,6 v 4 c 0,4 3.238,5 6,5 h 4" />
      <path
         id="path8"
         d="m 5.0005,31.0005 v 4 c 0,0.552 0.447,1 0.999,1 h 6.001" />
      <path
         id="path10"
         transform="translate(3,41)"
         d="m 1.0005,5e-4 v 5" />
      <path
         id="path12"
         transform="translate(14,43)"
         d="m 1.0005,5e-4 v 3" />
      <path
         id="path14"
         d="m 21.7641,39.0005 h -3.764 l 2,-4 h 3.382 c 0.743,0 1.227,0.782 0.895,1.446 l -0.724,1.448 c -0.339,0.677 -1.031,1.106 -1.789,1.106 z" />
      <path
         id="path16"
         d="m 9.0005,31.0005 5,3" />
      <path
         id="path18"
         d="m 23.0005,35.0005 2,-4 h -10 l -6,12 h 10 l 2,-4" />
    </g>
  </g>
</svg>
