<?xml version="1.0" encoding="UTF-8" standalone="no"?>
<svg
   xmlns:dc="http://purl.org/dc/elements/1.1/"
   xmlns:cc="http://creativecommons.org/ns#"
   xmlns:rdf="http://www.w3.org/1999/02/22-rdf-syntax-ns#"
   xmlns:svg="http://www.w3.org/2000/svg"
   xmlns="http://www.w3.org/2000/svg"
   height="40"
   width="40"
   id="svg18"
   version="1.1"
   viewBox="0 0 46.356354 46">
  <metadata
     id="metadata24">
    <rdf:RDF>
      <cc:Work
         rdf:about="">
        <dc:format>image/svg+xml</dc:format>
        <dc:type
           rdf:resource="http://purl.org/dc/dcmitype/StillImage" />
      </cc:Work>
    </rdf:RDF>
  </metadata>
  <defs
     id="defs22" />
  <g
     transform="translate(-26.003461,-22)"
     style="fill:none;fill-rule:evenodd"
     id="g16">
    <g
       style="stroke:#969696;stroke-width:2"
       id="g14"
       transform="translate(27,23)">
      <path
         id="path2"
         d="m 5.3674,13 v 3.463 c 0,0.861 0.547,2.858 1,3.537 0.318,0.477 2.162,2.257 3.232,3.274 0.491,0.467 1.142,0.726 1.819,0.726 h 1.949" />
      <path
         id="path4"
         d="m 20.3674,13 v 3.463 c 0,0.861 -0.315,2.613 -0.769,3.293 -0.453,0.679 -2.688,2.78 -2.688,2.78" />
      <path
         id="path6"
         d="M 10.3674,6 V 0 h 4 v 6" />
      <path
         id="path8"
         d="m 16.3674,1.1738 c 2,1.361 4,3.134 4,6.07 v 1.317 l 1,0.659 v 2.78 h -9 -9 v -2.78 l 1,-0.659 v -1.317 c 0,-2.936 2,-4.709 4,-6.07" />
      <path
         id="path10"
         d="m 1.3674,40 9,4 h 25.682 c 0.804,0 1.531,-0.482 1.843,-1.224 l 6.316,-15 C 44.7634,26.458 43.7964,25 42.3654,25 h -24.644 c -0.818,0 -1.553,0.498 -1.857,1.257 L 10.3674,40 1.1734,35.82 c -1,-0.454 -1.447,-1.629 -1,-2.632 l 2.666,-6.001 C 3.1604,26.466 3.8774,26 4.6674,26 h 1.7 l 1,-2" />
      <path
         id="path12"
         d="m 26.3674,34 h 3" />
    </g>
  </g>
</svg>
